<svg width="552" height="153" viewBox="0 0 552 153" fill="none" xmlns="http://www.w3.org/2000/svg">
<mask id="path-1-outside-1_1252_7041" maskUnits="userSpaceOnUse" x="0.347046" y="-0.0839844" width="552" height="153" fill="black">
<rect fill="white" x="0.347046" y="-0.0839844" width="552" height="153"/>
<path d="M10.011 144.084C9.41371 137.257 8.98705 130.388 8.73105 123.476C8.47505 116.564 8.34705 108.585 8.34705 99.54C8.34705 88.532 8.51771 77.5667 8.85905 66.644C9.20038 55.7213 9.71238 45.7373 10.395 36.692L32.411 37.332C32.155 39.2947 31.9417 41.3853 31.771 43.604C34.843 41.556 38.1284 40.0627 41.627 39.124C45.211 38.1853 48.8377 37.716 52.507 37.716C57.2004 37.716 61.7657 38.484 66.203 40.02C70.6404 41.4707 74.6511 43.8173 78.2351 47.06C81.8191 50.2173 84.6351 54.3133 86.6831 59.348C88.8164 64.3827 89.883 70.4414 89.883 77.524C89.883 84.5214 88.8164 90.6227 86.6831 95.828C84.5497 101.033 81.6911 105.3 78.107 108.628C74.523 112.041 70.5124 114.559 66.075 116.18C61.6377 117.887 57.0724 118.74 52.379 118.74C43.7604 118.74 36.1657 116.18 29.595 111.06C29.7657 116.521 30.0217 121.769 30.363 126.804C30.7044 131.924 31.131 137.129 31.643 142.42L10.011 144.084ZM49.051 58.964C40.603 58.964 34.2457 63.1027 29.979 71.38C29.723 76.5 29.5524 81.7054 29.467 86.996C31.515 89.7267 34.1604 92.116 37.403 94.164C40.6457 96.1267 44.7844 97.108 49.819 97.108C61.851 97.108 67.867 90.2387 67.867 76.5C67.867 72.8307 67.1844 69.844 65.819 67.54C64.4537 65.236 62.747 63.4867 60.699 62.292C58.651 61.012 56.5604 60.1587 54.427 59.732C52.2937 59.22 50.5017 58.964 49.051 58.964Z"/>
<path d="M134.821 118.228C127.994 118.228 122.021 117.119 116.901 114.9C111.866 112.681 107.685 109.652 104.357 105.812C101.029 101.887 98.5544 97.4067 96.933 92.372C95.3117 87.3374 94.501 82.0467 94.501 76.5C94.501 70.868 95.4824 65.6627 97.445 60.884C99.493 56.02 102.266 51.796 105.765 48.212C109.349 44.628 113.53 41.8547 118.309 39.892C123.088 37.844 128.293 36.82 133.925 36.82C139.813 36.82 145.274 37.844 150.309 39.892C155.344 41.94 159.738 44.7987 163.493 48.468C167.248 52.1373 170.149 56.4467 172.197 61.396C174.33 66.3453 175.397 71.7214 175.397 77.524C175.397 90.4094 171.856 100.436 164.773 107.604C157.69 114.687 147.706 118.228 134.821 118.228ZM134.693 97.492C140.922 97.492 145.658 95.7427 148.901 92.244C152.229 88.7454 153.893 83.7107 153.893 77.14C153.893 71.252 152.101 66.516 148.517 62.932C144.933 59.348 140.24 57.556 134.437 57.556C130.938 57.556 127.738 58.4947 124.837 60.372C121.936 62.164 119.589 64.596 117.797 67.668C116.09 70.6547 115.237 73.9827 115.237 77.652C115.237 80.8947 115.877 84.052 117.157 87.124C118.522 90.196 120.656 92.7134 123.557 94.676C126.458 96.5534 130.17 97.492 134.693 97.492Z"/>
<path d="M184.022 116.948C183.766 109.439 183.553 102.484 183.382 96.084C183.297 89.684 183.254 83.3693 183.254 77.14C183.254 70.9107 183.297 64.6813 183.382 58.452C183.553 52.1373 183.809 45.396 184.15 38.228H205.782C205.441 42.068 205.142 45.9507 204.886 49.876C207.787 46.2067 211.243 43.1773 215.254 40.788C219.265 38.3133 224.001 37.076 229.462 37.076C234.838 37.076 239.233 37.972 242.646 39.764C246.145 41.556 248.875 44.0307 250.838 47.188C252.886 50.3453 254.337 53.972 255.19 58.068C256.129 62.0787 256.726 66.4307 256.982 71.124C257.238 75.732 257.366 80.3827 257.366 85.076C257.366 90.196 257.281 95.1027 257.11 99.796C256.939 104.489 256.769 108.415 256.598 111.572C256.427 114.729 256.299 116.607 256.214 117.204H234.71C234.881 113.705 235.051 109.993 235.222 106.068C235.393 102.057 235.563 98.132 235.734 94.292C235.905 90.3667 235.99 86.8253 235.99 83.668C235.99 65.492 233.046 56.404 227.158 56.404C222.294 56.404 217.857 58.5373 213.846 62.804C209.921 66.9853 206.635 72.276 203.99 78.676C203.99 79.5294 203.99 80.3827 203.99 81.236C203.99 85.332 203.99 89.5987 203.99 94.036C204.075 98.388 204.161 102.569 204.246 106.58C204.417 110.505 204.545 113.919 204.63 116.82L184.022 116.948Z"/>
<path d="M305.841 117.844C300.721 117.844 296.668 116.735 293.681 114.516C290.694 112.383 288.518 109.396 287.153 105.556C285.788 101.716 284.892 97.3214 284.465 92.372C284.124 87.4227 283.953 82.2173 283.953 76.756C283.953 71.124 284.166 65.2787 284.593 59.22C278.876 59.988 273.372 60.9694 268.081 62.164L264.113 42.068C271.196 40.1907 278.748 38.8253 286.769 37.972C287.366 33.62 288.006 29.0547 288.689 24.276C289.372 19.412 290.14 14.292 290.993 8.91602L313.009 10.836C311.985 15.2733 311.089 19.7107 310.321 24.148C309.553 28.5 308.87 32.724 308.273 36.82C313.052 36.82 317.532 36.948 321.713 37.204C325.98 37.3747 329.905 37.716 333.489 38.228L330.929 58.324C327.942 57.9827 324.828 57.7693 321.585 57.684C318.428 57.5133 315.228 57.428 311.985 57.428C310.022 57.428 308.06 57.4707 306.097 57.556C305.585 63.7853 305.244 69.1187 305.073 73.556C304.988 77.9933 304.945 81.1507 304.945 83.028C304.945 87.7213 305.201 91.092 305.713 93.14C306.31 95.188 307.249 96.212 308.529 96.212C309.98 96.212 311.601 95.7427 313.393 94.804C315.185 93.78 316.934 92.4147 318.641 90.708C320.433 89.0013 321.926 87.1667 323.121 85.204L332.977 105.812C324.529 113.833 315.484 117.844 305.841 117.844Z"/>
<path d="M378.79 117.972C370.598 117.972 363.387 116.351 357.158 113.108C351.014 109.951 346.193 105.513 342.694 99.796C339.281 94.0787 337.574 87.4653 337.574 79.956C337.574 75.4333 338.342 70.6973 339.878 65.748C341.414 60.7133 343.889 56.02 347.302 51.668C350.715 47.316 355.195 43.7747 360.742 41.044C366.374 38.3133 373.201 36.948 381.222 36.948C387.025 36.948 391.889 37.588 395.814 38.868C399.825 40.148 403.067 41.812 405.542 43.86C408.102 45.908 410.022 48.084 411.302 50.388C412.667 52.692 413.563 54.9107 413.99 57.044C414.502 59.092 414.758 60.7987 414.758 62.164C414.758 70.4413 411.259 76.8413 404.262 81.364C397.35 85.8013 387.537 88.02 374.822 88.02C371.921 88.02 369.147 87.892 366.502 87.636C363.942 87.38 361.553 87.0814 359.334 86.74C360.955 91.0067 363.643 94.164 367.398 96.212C371.153 98.1747 375.035 99.156 379.046 99.156C384.849 99.156 389.969 98.132 394.406 96.084C398.843 93.9507 403.025 90.708 406.95 86.356L418.342 102.74C415.611 104.959 412.539 107.263 409.126 109.652C405.798 112.041 401.702 114.004 396.838 115.54C391.974 117.161 385.958 117.972 378.79 117.972ZM381.606 56.148C376.571 56.148 372.134 57.428 368.294 59.988C364.454 62.548 361.638 65.9187 359.846 70.1C361.979 70.4413 364.07 70.74 366.118 70.996C368.251 71.1667 370.342 71.252 372.39 71.252C374.267 71.252 376.401 71.0813 378.79 70.74C381.265 70.3987 383.654 69.8867 385.958 69.204C388.347 68.5213 390.31 67.668 391.846 66.644C393.382 65.5347 394.15 64.2547 394.15 62.804C394.15 62.1213 393.809 61.268 393.126 60.244C392.443 59.22 391.206 58.2813 389.414 57.428C387.622 56.5747 385.019 56.148 381.606 56.148Z"/>
<path d="M457.955 117.844C451.555 117.844 445.752 116.18 440.547 112.852C435.342 109.609 431.203 105.215 428.131 99.668C425.144 94.036 423.651 87.764 423.651 80.852C423.651 74.3667 424.846 68.5213 427.235 63.316C429.624 58.0254 432.867 53.5027 436.963 49.748C441.144 45.9933 445.88 43.1347 451.171 41.172C456.462 39.124 462.008 38.1 467.811 38.1C472.675 38.1 477.454 38.7827 482.147 40.148C482.488 38.356 482.787 36.564 483.043 34.772L504.931 38.484C504.334 40.1053 503.736 42.5373 503.139 45.78C502.542 49.0227 502.03 52.6493 501.603 56.66C501.262 60.6707 500.963 64.6813 500.707 68.692C500.451 72.7027 500.323 76.3293 500.323 79.572C500.323 82.2173 500.494 84.82 500.835 87.38C501.262 89.8547 502.115 91.9027 503.395 93.524C504.675 95.06 506.638 95.828 509.283 95.828H511.075L507.875 118.1C502.243 118.1 497.592 117.119 493.923 115.156C490.254 113.279 487.31 110.719 485.091 107.476C481.422 111.572 477.24 114.303 472.547 115.668C467.854 117.119 462.99 117.844 457.955 117.844ZM444.643 83.412C445.07 87.508 446.734 90.7934 449.635 93.268C452.622 95.6574 456.376 96.852 460.899 96.852C465.251 96.852 468.878 95.7 471.779 93.396C474.68 91.0067 477.07 87.764 478.947 83.668C478.862 82.3027 478.819 80.8947 478.819 79.444C478.819 76.4573 478.904 73.3853 479.075 70.228C479.246 67.0707 479.459 63.956 479.715 60.884C476.131 59.5187 472.376 58.836 468.451 58.836C463.843 58.836 459.704 59.7747 456.035 61.652C452.451 63.444 449.635 65.9613 447.587 69.204C445.539 72.4467 444.515 76.2014 444.515 80.468C444.515 80.98 444.515 81.492 444.515 82.004C444.515 82.516 444.558 82.9854 444.643 83.412Z"/>
<path d="M528.933 118.1C525.69 118.1 523.002 117.375 520.869 115.924C518.736 114.473 517.157 112.596 516.133 110.292C515.109 107.988 514.597 105.599 514.597 103.124C514.597 98.4307 516.09 94.8467 519.077 92.372C522.064 89.812 525.648 88.532 529.829 88.532C534.096 88.532 537.466 89.812 539.941 92.372C542.416 94.932 543.653 98.3453 543.653 102.612C543.653 108.073 542.16 111.999 539.173 114.388C536.272 116.863 532.858 118.1 528.933 118.1Z"/>
</mask>
<path d="M10.011 144.084C9.41371 137.257 8.98705 130.388 8.73105 123.476C8.47505 116.564 8.34705 108.585 8.34705 99.54C8.34705 88.532 8.51771 77.5667 8.85905 66.644C9.20038 55.7213 9.71238 45.7373 10.395 36.692L32.411 37.332C32.155 39.2947 31.9417 41.3853 31.771 43.604C34.843 41.556 38.1284 40.0627 41.627 39.124C45.211 38.1853 48.8377 37.716 52.507 37.716C57.2004 37.716 61.7657 38.484 66.203 40.02C70.6404 41.4707 74.6511 43.8173 78.2351 47.06C81.8191 50.2173 84.6351 54.3133 86.6831 59.348C88.8164 64.3827 89.883 70.4414 89.883 77.524C89.883 84.5214 88.8164 90.6227 86.6831 95.828C84.5497 101.033 81.6911 105.3 78.107 108.628C74.523 112.041 70.5124 114.559 66.075 116.18C61.6377 117.887 57.0724 118.74 52.379 118.74C43.7604 118.74 36.1657 116.18 29.595 111.06C29.7657 116.521 30.0217 121.769 30.363 126.804C30.7044 131.924 31.131 137.129 31.643 142.42L10.011 144.084ZM49.051 58.964C40.603 58.964 34.2457 63.1027 29.979 71.38C29.723 76.5 29.5524 81.7054 29.467 86.996C31.515 89.7267 34.1604 92.116 37.403 94.164C40.6457 96.1267 44.7844 97.108 49.819 97.108C61.851 97.108 67.867 90.2387 67.867 76.5C67.867 72.8307 67.1844 69.844 65.819 67.54C64.4537 65.236 62.747 63.4867 60.699 62.292C58.651 61.012 56.5604 60.1587 54.427 59.732C52.2937 59.22 50.5017 58.964 49.051 58.964Z" fill="#144EC0"/>
<path d="M134.821 118.228C127.994 118.228 122.021 117.119 116.901 114.9C111.866 112.681 107.685 109.652 104.357 105.812C101.029 101.887 98.5544 97.4067 96.933 92.372C95.3117 87.3374 94.501 82.0467 94.501 76.5C94.501 70.868 95.4824 65.6627 97.445 60.884C99.493 56.02 102.266 51.796 105.765 48.212C109.349 44.628 113.53 41.8547 118.309 39.892C123.088 37.844 128.293 36.82 133.925 36.82C139.813 36.82 145.274 37.844 150.309 39.892C155.344 41.94 159.738 44.7987 163.493 48.468C167.248 52.1373 170.149 56.4467 172.197 61.396C174.33 66.3453 175.397 71.7214 175.397 77.524C175.397 90.4094 171.856 100.436 164.773 107.604C157.69 114.687 147.706 118.228 134.821 118.228ZM134.693 97.492C140.922 97.492 145.658 95.7427 148.901 92.244C152.229 88.7454 153.893 83.7107 153.893 77.14C153.893 71.252 152.101 66.516 148.517 62.932C144.933 59.348 140.24 57.556 134.437 57.556C130.938 57.556 127.738 58.4947 124.837 60.372C121.936 62.164 119.589 64.596 117.797 67.668C116.09 70.6547 115.237 73.9827 115.237 77.652C115.237 80.8947 115.877 84.052 117.157 87.124C118.522 90.196 120.656 92.7134 123.557 94.676C126.458 96.5534 130.17 97.492 134.693 97.492Z" fill="#144EC0"/>
<path d="M184.022 116.948C183.766 109.439 183.553 102.484 183.382 96.084C183.297 89.684 183.254 83.3693 183.254 77.14C183.254 70.9107 183.297 64.6813 183.382 58.452C183.553 52.1373 183.809 45.396 184.15 38.228H205.782C205.441 42.068 205.142 45.9507 204.886 49.876C207.787 46.2067 211.243 43.1773 215.254 40.788C219.265 38.3133 224.001 37.076 229.462 37.076C234.838 37.076 239.233 37.972 242.646 39.764C246.145 41.556 248.875 44.0307 250.838 47.188C252.886 50.3453 254.337 53.972 255.19 58.068C256.129 62.0787 256.726 66.4307 256.982 71.124C257.238 75.732 257.366 80.3827 257.366 85.076C257.366 90.196 257.281 95.1027 257.11 99.796C256.939 104.489 256.769 108.415 256.598 111.572C256.427 114.729 256.299 116.607 256.214 117.204H234.71C234.881 113.705 235.051 109.993 235.222 106.068C235.393 102.057 235.563 98.132 235.734 94.292C235.905 90.3667 235.99 86.8253 235.99 83.668C235.99 65.492 233.046 56.404 227.158 56.404C222.294 56.404 217.857 58.5373 213.846 62.804C209.921 66.9853 206.635 72.276 203.99 78.676C203.99 79.5294 203.99 80.3827 203.99 81.236C203.99 85.332 203.99 89.5987 203.99 94.036C204.075 98.388 204.161 102.569 204.246 106.58C204.417 110.505 204.545 113.919 204.63 116.82L184.022 116.948Z" fill="#144EC0"/>
<path d="M305.841 117.844C300.721 117.844 296.668 116.735 293.681 114.516C290.694 112.383 288.518 109.396 287.153 105.556C285.788 101.716 284.892 97.3214 284.465 92.372C284.124 87.4227 283.953 82.2173 283.953 76.756C283.953 71.124 284.166 65.2787 284.593 59.22C278.876 59.988 273.372 60.9694 268.081 62.164L264.113 42.068C271.196 40.1907 278.748 38.8253 286.769 37.972C287.366 33.62 288.006 29.0547 288.689 24.276C289.372 19.412 290.14 14.292 290.993 8.91602L313.009 10.836C311.985 15.2733 311.089 19.7107 310.321 24.148C309.553 28.5 308.87 32.724 308.273 36.82C313.052 36.82 317.532 36.948 321.713 37.204C325.98 37.3747 329.905 37.716 333.489 38.228L330.929 58.324C327.942 57.9827 324.828 57.7693 321.585 57.684C318.428 57.5133 315.228 57.428 311.985 57.428C310.022 57.428 308.06 57.4707 306.097 57.556C305.585 63.7853 305.244 69.1187 305.073 73.556C304.988 77.9933 304.945 81.1507 304.945 83.028C304.945 87.7213 305.201 91.092 305.713 93.14C306.31 95.188 307.249 96.212 308.529 96.212C309.98 96.212 311.601 95.7427 313.393 94.804C315.185 93.78 316.934 92.4147 318.641 90.708C320.433 89.0013 321.926 87.1667 323.121 85.204L332.977 105.812C324.529 113.833 315.484 117.844 305.841 117.844Z" fill="#144EC0"/>
<path d="M378.79 117.972C370.598 117.972 363.387 116.351 357.158 113.108C351.014 109.951 346.193 105.513 342.694 99.796C339.281 94.0787 337.574 87.4653 337.574 79.956C337.574 75.4333 338.342 70.6973 339.878 65.748C341.414 60.7133 343.889 56.02 347.302 51.668C350.715 47.316 355.195 43.7747 360.742 41.044C366.374 38.3133 373.201 36.948 381.222 36.948C387.025 36.948 391.889 37.588 395.814 38.868C399.825 40.148 403.067 41.812 405.542 43.86C408.102 45.908 410.022 48.084 411.302 50.388C412.667 52.692 413.563 54.9107 413.99 57.044C414.502 59.092 414.758 60.7987 414.758 62.164C414.758 70.4413 411.259 76.8413 404.262 81.364C397.35 85.8013 387.537 88.02 374.822 88.02C371.921 88.02 369.147 87.892 366.502 87.636C363.942 87.38 361.553 87.0814 359.334 86.74C360.955 91.0067 363.643 94.164 367.398 96.212C371.153 98.1747 375.035 99.156 379.046 99.156C384.849 99.156 389.969 98.132 394.406 96.084C398.843 93.9507 403.025 90.708 406.95 86.356L418.342 102.74C415.611 104.959 412.539 107.263 409.126 109.652C405.798 112.041 401.702 114.004 396.838 115.54C391.974 117.161 385.958 117.972 378.79 117.972ZM381.606 56.148C376.571 56.148 372.134 57.428 368.294 59.988C364.454 62.548 361.638 65.9187 359.846 70.1C361.979 70.4413 364.07 70.74 366.118 70.996C368.251 71.1667 370.342 71.252 372.39 71.252C374.267 71.252 376.401 71.0813 378.79 70.74C381.265 70.3987 383.654 69.8867 385.958 69.204C388.347 68.5213 390.31 67.668 391.846 66.644C393.382 65.5347 394.15 64.2547 394.15 62.804C394.15 62.1213 393.809 61.268 393.126 60.244C392.443 59.22 391.206 58.2813 389.414 57.428C387.622 56.5747 385.019 56.148 381.606 56.148Z" fill="#144EC0"/>
<path d="M457.955 117.844C451.555 117.844 445.752 116.18 440.547 112.852C435.342 109.609 431.203 105.215 428.131 99.668C425.144 94.036 423.651 87.764 423.651 80.852C423.651 74.3667 424.846 68.5213 427.235 63.316C429.624 58.0254 432.867 53.5027 436.963 49.748C441.144 45.9933 445.88 43.1347 451.171 41.172C456.462 39.124 462.008 38.1 467.811 38.1C472.675 38.1 477.454 38.7827 482.147 40.148C482.488 38.356 482.787 36.564 483.043 34.772L504.931 38.484C504.334 40.1053 503.736 42.5373 503.139 45.78C502.542 49.0227 502.03 52.6493 501.603 56.66C501.262 60.6707 500.963 64.6813 500.707 68.692C500.451 72.7027 500.323 76.3293 500.323 79.572C500.323 82.2173 500.494 84.82 500.835 87.38C501.262 89.8547 502.115 91.9027 503.395 93.524C504.675 95.06 506.638 95.828 509.283 95.828H511.075L507.875 118.1C502.243 118.1 497.592 117.119 493.923 115.156C490.254 113.279 487.31 110.719 485.091 107.476C481.422 111.572 477.24 114.303 472.547 115.668C467.854 117.119 462.99 117.844 457.955 117.844ZM444.643 83.412C445.07 87.508 446.734 90.7934 449.635 93.268C452.622 95.6574 456.376 96.852 460.899 96.852C465.251 96.852 468.878 95.7 471.779 93.396C474.68 91.0067 477.07 87.764 478.947 83.668C478.862 82.3027 478.819 80.8947 478.819 79.444C478.819 76.4573 478.904 73.3853 479.075 70.228C479.246 67.0707 479.459 63.956 479.715 60.884C476.131 59.5187 472.376 58.836 468.451 58.836C463.843 58.836 459.704 59.7747 456.035 61.652C452.451 63.444 449.635 65.9613 447.587 69.204C445.539 72.4467 444.515 76.2014 444.515 80.468C444.515 80.98 444.515 81.492 444.515 82.004C444.515 82.516 444.558 82.9854 444.643 83.412Z" fill="#144EC0"/>
<path d="M528.933 118.1C525.69 118.1 523.002 117.375 520.869 115.924C518.736 114.473 517.157 112.596 516.133 110.292C515.109 107.988 514.597 105.599 514.597 103.124C514.597 98.4307 516.09 94.8467 519.077 92.372C522.064 89.812 525.648 88.532 529.829 88.532C534.096 88.532 537.466 89.812 539.941 92.372C542.416 94.932 543.653 98.3453 543.653 102.612C543.653 108.073 542.16 111.999 539.173 114.388C536.272 116.863 532.858 118.1 528.933 118.1Z" fill="#144EC0"/>
<path d="M10.011 144.084C9.41371 137.257 8.98705 130.388 8.73105 123.476C8.47505 116.564 8.34705 108.585 8.34705 99.54C8.34705 88.532 8.51771 77.5667 8.85905 66.644C9.20038 55.7213 9.71238 45.7373 10.395 36.692L32.411 37.332C32.155 39.2947 31.9417 41.3853 31.771 43.604C34.843 41.556 38.1284 40.0627 41.627 39.124C45.211 38.1853 48.8377 37.716 52.507 37.716C57.2004 37.716 61.7657 38.484 66.203 40.02C70.6404 41.4707 74.6511 43.8173 78.2351 47.06C81.8191 50.2173 84.6351 54.3133 86.6831 59.348C88.8164 64.3827 89.883 70.4414 89.883 77.524C89.883 84.5214 88.8164 90.6227 86.6831 95.828C84.5497 101.033 81.6911 105.3 78.107 108.628C74.523 112.041 70.5124 114.559 66.075 116.18C61.6377 117.887 57.0724 118.74 52.379 118.74C43.7604 118.74 36.1657 116.18 29.595 111.06C29.7657 116.521 30.0217 121.769 30.363 126.804C30.7044 131.924 31.131 137.129 31.643 142.42L10.011 144.084ZM49.051 58.964C40.603 58.964 34.2457 63.1027 29.979 71.38C29.723 76.5 29.5524 81.7054 29.467 86.996C31.515 89.7267 34.1604 92.116 37.403 94.164C40.6457 96.1267 44.7844 97.108 49.819 97.108C61.851 97.108 67.867 90.2387 67.867 76.5C67.867 72.8307 67.1844 69.844 65.819 67.54C64.4537 65.236 62.747 63.4867 60.699 62.292C58.651 61.012 56.5604 60.1587 54.427 59.732C52.2937 59.22 50.5017 58.964 49.051 58.964Z" stroke="#FBFDFF" stroke-width="16" mask="url(#path-1-outside-1_1252_7041)"/>
<path d="M134.821 118.228C127.994 118.228 122.021 117.119 116.901 114.9C111.866 112.681 107.685 109.652 104.357 105.812C101.029 101.887 98.5544 97.4067 96.933 92.372C95.3117 87.3374 94.501 82.0467 94.501 76.5C94.501 70.868 95.4824 65.6627 97.445 60.884C99.493 56.02 102.266 51.796 105.765 48.212C109.349 44.628 113.53 41.8547 118.309 39.892C123.088 37.844 128.293 36.82 133.925 36.82C139.813 36.82 145.274 37.844 150.309 39.892C155.344 41.94 159.738 44.7987 163.493 48.468C167.248 52.1373 170.149 56.4467 172.197 61.396C174.33 66.3453 175.397 71.7214 175.397 77.524C175.397 90.4094 171.856 100.436 164.773 107.604C157.69 114.687 147.706 118.228 134.821 118.228ZM134.693 97.492C140.922 97.492 145.658 95.7427 148.901 92.244C152.229 88.7454 153.893 83.7107 153.893 77.14C153.893 71.252 152.101 66.516 148.517 62.932C144.933 59.348 140.24 57.556 134.437 57.556C130.938 57.556 127.738 58.4947 124.837 60.372C121.936 62.164 119.589 64.596 117.797 67.668C116.09 70.6547 115.237 73.9827 115.237 77.652C115.237 80.8947 115.877 84.052 117.157 87.124C118.522 90.196 120.656 92.7134 123.557 94.676C126.458 96.5534 130.17 97.492 134.693 97.492Z" stroke="#FBFDFF" stroke-width="16" mask="url(#path-1-outside-1_1252_7041)"/>
<path d="M184.022 116.948C183.766 109.439 183.553 102.484 183.382 96.084C183.297 89.684 183.254 83.3693 183.254 77.14C183.254 70.9107 183.297 64.6813 183.382 58.452C183.553 52.1373 183.809 45.396 184.15 38.228H205.782C205.441 42.068 205.142 45.9507 204.886 49.876C207.787 46.2067 211.243 43.1773 215.254 40.788C219.265 38.3133 224.001 37.076 229.462 37.076C234.838 37.076 239.233 37.972 242.646 39.764C246.145 41.556 248.875 44.0307 250.838 47.188C252.886 50.3453 254.337 53.972 255.19 58.068C256.129 62.0787 256.726 66.4307 256.982 71.124C257.238 75.732 257.366 80.3827 257.366 85.076C257.366 90.196 257.281 95.1027 257.11 99.796C256.939 104.489 256.769 108.415 256.598 111.572C256.427 114.729 256.299 116.607 256.214 117.204H234.71C234.881 113.705 235.051 109.993 235.222 106.068C235.393 102.057 235.563 98.132 235.734 94.292C235.905 90.3667 235.99 86.8253 235.99 83.668C235.99 65.492 233.046 56.404 227.158 56.404C222.294 56.404 217.857 58.5373 213.846 62.804C209.921 66.9853 206.635 72.276 203.99 78.676C203.99 79.5294 203.99 80.3827 203.99 81.236C203.99 85.332 203.99 89.5987 203.99 94.036C204.075 98.388 204.161 102.569 204.246 106.58C204.417 110.505 204.545 113.919 204.63 116.82L184.022 116.948Z" stroke="#FBFDFF" stroke-width="16" mask="url(#path-1-outside-1_1252_7041)"/>
<path d="M305.841 117.844C300.721 117.844 296.668 116.735 293.681 114.516C290.694 112.383 288.518 109.396 287.153 105.556C285.788 101.716 284.892 97.3214 284.465 92.372C284.124 87.4227 283.953 82.2173 283.953 76.756C283.953 71.124 284.166 65.2787 284.593 59.22C278.876 59.988 273.372 60.9694 268.081 62.164L264.113 42.068C271.196 40.1907 278.748 38.8253 286.769 37.972C287.366 33.62 288.006 29.0547 288.689 24.276C289.372 19.412 290.14 14.292 290.993 8.91602L313.009 10.836C311.985 15.2733 311.089 19.7107 310.321 24.148C309.553 28.5 308.87 32.724 308.273 36.82C313.052 36.82 317.532 36.948 321.713 37.204C325.98 37.3747 329.905 37.716 333.489 38.228L330.929 58.324C327.942 57.9827 324.828 57.7693 321.585 57.684C318.428 57.5133 315.228 57.428 311.985 57.428C310.022 57.428 308.06 57.4707 306.097 57.556C305.585 63.7853 305.244 69.1187 305.073 73.556C304.988 77.9933 304.945 81.1507 304.945 83.028C304.945 87.7213 305.201 91.092 305.713 93.14C306.31 95.188 307.249 96.212 308.529 96.212C309.98 96.212 311.601 95.7427 313.393 94.804C315.185 93.78 316.934 92.4147 318.641 90.708C320.433 89.0013 321.926 87.1667 323.121 85.204L332.977 105.812C324.529 113.833 315.484 117.844 305.841 117.844Z" stroke="#FBFDFF" stroke-width="16" mask="url(#path-1-outside-1_1252_7041)"/>
<path d="M378.79 117.972C370.598 117.972 363.387 116.351 357.158 113.108C351.014 109.951 346.193 105.513 342.694 99.796C339.281 94.0787 337.574 87.4653 337.574 79.956C337.574 75.4333 338.342 70.6973 339.878 65.748C341.414 60.7133 343.889 56.02 347.302 51.668C350.715 47.316 355.195 43.7747 360.742 41.044C366.374 38.3133 373.201 36.948 381.222 36.948C387.025 36.948 391.889 37.588 395.814 38.868C399.825 40.148 403.067 41.812 405.542 43.86C408.102 45.908 410.022 48.084 411.302 50.388C412.667 52.692 413.563 54.9107 413.99 57.044C414.502 59.092 414.758 60.7987 414.758 62.164C414.758 70.4413 411.259 76.8413 404.262 81.364C397.35 85.8013 387.537 88.02 374.822 88.02C371.921 88.02 369.147 87.892 366.502 87.636C363.942 87.38 361.553 87.0814 359.334 86.74C360.955 91.0067 363.643 94.164 367.398 96.212C371.153 98.1747 375.035 99.156 379.046 99.156C384.849 99.156 389.969 98.132 394.406 96.084C398.843 93.9507 403.025 90.708 406.95 86.356L418.342 102.74C415.611 104.959 412.539 107.263 409.126 109.652C405.798 112.041 401.702 114.004 396.838 115.54C391.974 117.161 385.958 117.972 378.79 117.972ZM381.606 56.148C376.571 56.148 372.134 57.428 368.294 59.988C364.454 62.548 361.638 65.9187 359.846 70.1C361.979 70.4413 364.07 70.74 366.118 70.996C368.251 71.1667 370.342 71.252 372.39 71.252C374.267 71.252 376.401 71.0813 378.79 70.74C381.265 70.3987 383.654 69.8867 385.958 69.204C388.347 68.5213 390.31 67.668 391.846 66.644C393.382 65.5347 394.15 64.2547 394.15 62.804C394.15 62.1213 393.809 61.268 393.126 60.244C392.443 59.22 391.206 58.2813 389.414 57.428C387.622 56.5747 385.019 56.148 381.606 56.148Z" stroke="#FBFDFF" stroke-width="16" mask="url(#path-1-outside-1_1252_7041)"/>
<path d="M457.955 117.844C451.555 117.844 445.752 116.18 440.547 112.852C435.342 109.609 431.203 105.215 428.131 99.668C425.144 94.036 423.651 87.764 423.651 80.852C423.651 74.3667 424.846 68.5213 427.235 63.316C429.624 58.0254 432.867 53.5027 436.963 49.748C441.144 45.9933 445.88 43.1347 451.171 41.172C456.462 39.124 462.008 38.1 467.811 38.1C472.675 38.1 477.454 38.7827 482.147 40.148C482.488 38.356 482.787 36.564 483.043 34.772L504.931 38.484C504.334 40.1053 503.736 42.5373 503.139 45.78C502.542 49.0227 502.03 52.6493 501.603 56.66C501.262 60.6707 500.963 64.6813 500.707 68.692C500.451 72.7027 500.323 76.3293 500.323 79.572C500.323 82.2173 500.494 84.82 500.835 87.38C501.262 89.8547 502.115 91.9027 503.395 93.524C504.675 95.06 506.638 95.828 509.283 95.828H511.075L507.875 118.1C502.243 118.1 497.592 117.119 493.923 115.156C490.254 113.279 487.31 110.719 485.091 107.476C481.422 111.572 477.24 114.303 472.547 115.668C467.854 117.119 462.99 117.844 457.955 117.844ZM444.643 83.412C445.07 87.508 446.734 90.7934 449.635 93.268C452.622 95.6574 456.376 96.852 460.899 96.852C465.251 96.852 468.878 95.7 471.779 93.396C474.68 91.0067 477.07 87.764 478.947 83.668C478.862 82.3027 478.819 80.8947 478.819 79.444C478.819 76.4573 478.904 73.3853 479.075 70.228C479.246 67.0707 479.459 63.956 479.715 60.884C476.131 59.5187 472.376 58.836 468.451 58.836C463.843 58.836 459.704 59.7747 456.035 61.652C452.451 63.444 449.635 65.9613 447.587 69.204C445.539 72.4467 444.515 76.2014 444.515 80.468C444.515 80.98 444.515 81.492 444.515 82.004C444.515 82.516 444.558 82.9854 444.643 83.412Z" stroke="#FBFDFF" stroke-width="16" mask="url(#path-1-outside-1_1252_7041)"/>
<path d="M528.933 118.1C525.69 118.1 523.002 117.375 520.869 115.924C518.736 114.473 517.157 112.596 516.133 110.292C515.109 107.988 514.597 105.599 514.597 103.124C514.597 98.4307 516.09 94.8467 519.077 92.372C522.064 89.812 525.648 88.532 529.829 88.532C534.096 88.532 537.466 89.812 539.941 92.372C542.416 94.932 543.653 98.3453 543.653 102.612C543.653 108.073 542.16 111.999 539.173 114.388C536.272 116.863 532.858 118.1 528.933 118.1Z" stroke="#FBFDFF" stroke-width="16" mask="url(#path-1-outside-1_1252_7041)"/>
</svg>
